<svg width="417.7" height="57.6" viewBox="0 0 417.7 57.6" xmlns="http://www.w3.org/2000/svg"><g id="svgGroup" stroke-linecap="round" fill-rule="evenodd" font-size="9pt" stroke="#fff" stroke-width="0.25mm" fill="#fff" style="stroke:#fff;stroke-width:0.25mm;fill:#fff"><path d="M 305.15 57.6 L 285.95 57.6 L 296.1 0 L 377.7 0 L 389.55 14.4 L 381.95 57.6 L 362.75 57.6 L 370.35 14.4 L 366.4 9.6 L 352 9.6 L 343.55 57.6 L 324.35 57.6 L 332.8 9.6 L 313.6 9.6 L 305.15 57.6 Z M 157.95 57.6 L 138.75 57.6 L 143 33.6 L 154.25 24 L 146.35 14.4 L 148.9 0 L 168.1 0 L 165.55 14.4 L 169.5 19.2 L 188.7 19.2 L 194.35 14.4 L 196.9 0 L 216.1 0 L 213.55 14.4 L 202.25 24 L 210.2 33.6 L 205.95 57.6 L 186.75 57.6 L 191 33.6 L 187.05 28.8 L 167.85 28.8 L 162.2 33.6 L 157.95 57.6 Z M 84.35 57.6 L 65.15 57.6 L 72.75 14.4 L 89.7 0 L 142.5 0 L 132.35 57.6 L 113.15 57.6 L 116.55 38.4 L 87.75 38.4 L 84.35 57.6 Z M 231.55 57.6 L 212.35 57.6 L 219.95 14.4 L 236.9 0 L 289.7 0 L 279.55 57.6 L 260.35 57.6 L 263.75 38.4 L 234.95 38.4 L 231.55 57.6 Z M 34.75 57.6 L 15.55 57.6 L 24 9.6 L 0 9.6 L 1.7 0 L 68.9 0 L 67.2 9.6 L 43.2 9.6 L 34.75 57.6 Z M 407.55 57.6 L 388.35 57.6 L 398.5 0 L 417.7 0 L 407.55 57.6 Z M 89.45 28.8 L 118.25 28.8 L 121.6 9.6 L 97.6 9.6 L 91.95 14.4 L 89.45 28.8 Z M 236.65 28.8 L 265.45 28.8 L 268.8 9.6 L 244.8 9.6 L 239.15 14.4 L 236.65 28.8 Z" vector-effect="non-scaling-stroke"/></g></svg>